{"title":"In Bruges2008.x264.AC3[5.1].Nordic_Sub.mkv","uid":5411801,"size":920221527,"categoryP":"video","categoryS":"movies","magnet":"?xt=urn:btih:31b9b40b28578c7ccef1a1a709a0b2c71e8a69a7&amp;dn=In+Bruges2008.x264.AC3%5B5.1%5D.Nordic_Sub.mkv&amp;tr=udp%3A%2F%2Ftracker.openbittorrent.com%3A80&amp;tr=udp%3A%2F%2Fopen.demonii.com%3A1337&amp;tr=udp%3A%2F%2Ftracker.coppersurfer.tk%3A6969&amp;tr=udp%3A%2F%2Fexodus.desync.com%3A6969","seeders":0,"leechers":1,"uploader":"Zen_Bud","files":-1,"time":1267779657,"description":"General\nComplete name                    : In Bruges.mkv\nFormat                           : Matroska\nFile size                        : 878 MiB\nDuration                         : 1h 42mn\nOverall bit rate                 : 1 197 Kbps\n\n\nVideo\nID                               : 1\nFormat                           : AVC\nDuration                         : 1h 42mn\nBit rate                         : 789 Kbps\nWidth                            : 720 pixels\nHeight                           : 436 pixels\nDisplay aspect ratio             : 2.35:1\nFrame rate                       : 25.000 fps\nResolution                       : 8 bits\nColorimetry                      : 4:2:0\nScan type                        : Progressive\nBits/(Pixel*Frame)               : 0.101\nStream size                      : 579 MiB (66%)\nWriting library                  : x264 core 79\n\nAudio\nID                               : 2\nFormat                           : AC-3\nFormat/Info                      : Audio Coding 3\nCodec ID                         : A_AC3\nDuration                         : 1h 42mn\nBit rate mode                    : Constant\nBit rate                         : 384 Kbps\nChannel(s)                       : 6 channels\nChannel positions                : Front: L C R, Surround: L R, LFE\nSampling rate                    : 48.0 KHz\nStream size                      : 281 MiB (32%)\nLanguage                         : English\n\nText #1\nLanguage                         : Danish\n\nText #2\nLanguage                         : Swedish\n\nText #3\nLanguage                         : Norwegian\n\nText #4\nLanguage                         : Finnish\n\n","torrent":{"xt":"urn:btih:31b9b40b28578c7ccef1a1a709a0b2c71e8a69a7","amp;dn":"In+Bruges2008.x264.AC3%5B5.1%5D.Nordic_Sub.mkv","amp;tr":["udp%3A%2F%2Ftracker.openbittorrent.com%3A80","udp%3A%2F%2Fopen.demonii.com%3A1337","udp%3A%2F%2Ftracker.coppersurfer.tk%3A6969","udp%3A%2F%2Fexodus.desync.com%3A6969"],"infoHash":"31b9b40b28578c7ccef1a1a709a0b2c71e8a69a7","infoHashBuffer":{"type":"Buffer","data":[49,185,180,11,40,87,140,124,206,241,161,167,9,160,178,199,30,138,105,167]},"announce":[],"urlList":[]}}